<svg width="22" height="22" viewBox="0 0 22 22" fill="none" xmlns="http://www.w3.org/2000/svg">
<mask id="mask0_134_1451" style="mask-type:alpha" maskUnits="userSpaceOnUse" x="0" y="0" width="22" height="22">
<rect x="0.853516" y="0.361156" width="20.7305" height="20.7305" fill="#D9D9D9"/>
</mask>
<g mask="url(#mask0_134_1451)">
<path d="M8.84362 19.3641L8.49811 16.6001C8.31096 16.5281 8.13461 16.4417 7.96905 16.3409C7.8035 16.2402 7.64154 16.1322 7.48318 16.017L4.91346 17.0967L2.53809 12.9938L4.7623 11.3095C4.7479 11.2087 4.7407 11.1115 4.7407 11.0179V10.4349C4.7407 10.3413 4.7479 10.2441 4.7623 10.1434L2.53809 8.45901L4.91346 4.3561L7.48318 5.43581C7.64154 5.32064 7.8071 5.21267 7.97985 5.1119C8.1526 5.01112 8.32536 4.92475 8.49811 4.85277L8.84362 2.0887H13.5944L13.9399 4.85277C14.127 4.92475 14.3034 5.01112 14.4689 5.1119C14.6345 5.21267 14.7965 5.32064 14.9548 5.43581L17.5245 4.3561L19.8999 8.45901L17.6757 10.1434C17.6901 10.2441 17.6973 10.3413 17.6973 10.4349V11.0179C17.6973 11.1115 17.6829 11.2087 17.6541 11.3095L19.8783 12.9938L17.5029 17.0967L14.9548 16.017C14.7965 16.1322 14.6309 16.2402 14.4581 16.3409C14.2854 16.4417 14.1126 16.5281 13.9399 16.6001L13.5944 19.3641H8.84362ZM11.2622 13.7496C12.0972 13.7496 12.8098 13.4545 13.4 12.8643C13.9903 12.274 14.2854 11.5614 14.2854 10.7264C14.2854 9.89144 13.9903 9.17882 13.4 8.58858C12.8098 7.99834 12.0972 7.70321 11.2622 7.70321C10.4128 7.70321 9.6966 7.99834 9.11355 8.58858C8.5305 9.17882 8.23898 9.89144 8.23898 10.7264C8.23898 11.5614 8.5305 12.274 9.11355 12.8643C9.6966 13.4545 10.4128 13.7496 11.2622 13.7496Z" fill="#7A28FF"/>
</g>
</svg>
