<svg fill="#7C7484" height="18" width="18" version="1.1" id="Layer_1" xmlns="http://www.w3.org/2000/svg" xmlns:xlink="http://www.w3.org/1999/xlink" viewBox="0 0 27.88 27.88" xml:space="preserve"><g id="XMLID_455_"><path id="XMLID_458_" d="M1.275 24.374h10.676c1.636 2.07 4.168 3.4 7.004 3.4 4.921 0 8.925 -4.004 8.925 -8.925s-4.004 -8.925 -8.925 -8.925c-2.931 0 -5.537 1.421 -7.165 3.61A9.809 9.809 0 0 0 9.775 13.324c-5.39 0 -9.775 4.385 -9.775 9.775 0 0.704 0.571 1.275 1.275 1.275m17.68 -11.9c3.515 0 6.375 2.86 6.375 6.375s-2.86 6.375 -6.375 6.375 -6.375 -2.86 -6.375 -6.375 2.86 -6.375 6.375 -6.375"/><path id="XMLID_461_" d="M9.775 0.106c-2.941 0 -5.334 2.393 -5.334 5.334S6.834 10.774 9.775 10.774s5.334 -2.393 5.334 -5.334S12.716 0.106 9.775 0.106"/><path id="XMLID_462_" d="M16.405 20.124h1.275v1.275c0 0.704 0.571 1.275 1.275 1.275s1.275 -0.571 1.275 -1.275v-1.275h1.275c0.704 0 1.275 -0.571 1.275 -1.275s-0.571 -1.275 -1.275 -1.275h-1.275v-1.275c0 -0.704 -0.571 -1.275 -1.275 -1.275s-1.275 0.571 -1.275 1.275v1.275h-1.275c-0.704 0 -1.275 0.571 -1.275 1.275s0.571 1.275 1.275 1.275"/></g></svg>